<svg aria-hidden="true" style="position: absolute; width: 0; height: 0; overflow: hidden;" version="1.1" xmlns="http://www.w3.org/2000/svg" xmlns:xlink="http://www.w3.org/1999/xlink">
<defs>
<symbol id="icon-Vector-4" viewBox="0 0 50 32">
<path stroke-linejoin="round" stroke-linecap="round" stroke-miterlimit="4" stroke-width="3.4286" d="M45.714 4.571l-20.571 22.857-20.571-22.857"></path>
</symbol>
<symbol id="icon-Vector-230" viewBox="0 0 16 32">
<path stroke-linejoin="miter" stroke-linecap="butt" stroke-miterlimit="4" stroke-width="0.3137" d="M0.314 0.314l15.686 15.686-15.686 15.686"></path>
</symbol>
<symbol id="icon-football-1-1" viewBox="0 0 32 32">
<path d="M0 0h32v32h-32v-32z"></path>
</symbol>
<symbol id="icon-paper-1" viewBox="0 0 32 32">
<path d="M0 0h32v32h-32v-32z"></path>
</symbol>
<symbol id="icon-scissors-1" viewBox="0 0 32 32">
<path d="M0 0h32v32h-32v-32z"></path>
</symbol>
<symbol id="icon-stone-1" viewBox="0 0 32 32">
<path d="M0 0h32v32h-32v-32z"></path>
</symbol>
<symbol id="icon-stone" viewBox="0 0 32 32">
<path d="M1.925.071C.999.305.252 1.072.056 1.99c-.08.378-.08 23.142 0 23.52.147.687.702 1.417 1.298 1.706.6.291.479.284 5.256.284h4.388l.028.138c.241 1.21.95 1.999 2.056 2.287.371.096.867.096 1.241-.002.832-.216 1.408-.692 1.874-1.548.15-.275.324-.584.387-.686l.115-.186 3.663-.019c2.015-.011 3.716-.028 3.782-.039.106-.018.161.055.528.705.312.552.489.805.744 1.061.663.663 1.631.94 2.498.715a2.769 2.769 0 0 0 2.012-2.012c.11-.423.11-7.446 0-8.078a4.612 4.612 0 0 0-3.451-3.712l-.45-.114L26 8.993c-.024-6.676-.03-7.03-.118-7.268C25.565.871 24.853.236 24.01.056 23.606-.03 2.269-.015 1.925.071m22.211 1.067c.331.177.548.395.699.703.136.275.141.313.156 1.222l.017.937H.991l.018-.962c.016-.874.028-.982.127-1.169.222-.418.592-.728.981-.821.087-.021 5.029-.035 10.983-.031l10.825.008.211.113m-21.88.932a.487.487 0 0 0-.007.847c.194.114.808.114 1.002 0 .328-.194.323-.674-.008-.846-.176-.09-.825-.091-.987-.001m2.5 0c-.237.131-.316.419-.185.673.1.194.276.257.711.257.363 0 .385-.007.548-.17.25-.25.209-.606-.087-.759-.176-.09-.825-.091-.987-.001m2.5 0c-.295.163-.335.511-.086.76.164.164.184.17.555.17.424 0 .627-.081.721-.286a.49.49 0 0 0-.203-.643c-.176-.09-.825-.091-.987-.001m13.5 0c-.237.131-.316.419-.185.673.125.242.226.257 1.711.257h1.378l.17-.17c.25-.25.209-.606-.087-.759-.193-.1-2.808-.101-2.987-.001m4.232 8.44-.013 5.509-.325.062c-.844.16-1.847.7-2.396 1.289l-.121.13h-1.634c-1.609 0-1.635-.002-1.729-.108-.411-.465-1.391-1.039-2.12-1.241-2.176-.606-4.633.721-5.378 2.905-.26.763-.272.959-.272 4.326V26.5H6.627c-4.257 0-4.38-.003-4.642-.1a1.534 1.534 0 0 1-.812-.707l-.148-.268-.013-10.212L.999 5H25l-.012 5.51M9.17 7.145c-.384.284-3.612 3.575-3.647 3.718a.67.67 0 0 0 0 .275c.038.155 3.504 3.668 3.746 3.795.386.204.835-.198.681-.61-.031-.084-.738-.833-1.64-1.735L6.726 11l1.582-1.588c.87-.873 1.606-1.636 1.637-1.696.163-.324-.089-.716-.46-.716-.066 0-.208.065-.315.145m5.099-.068a.545.545 0 0 0-.217.214C13.631 8.207 11 14.426 11 14.504c0 .243.256.496.5.496a.524.524 0 0 0 .423-.247C12.16 14.294 15 7.578 15 7.477c0-.167-.238-.421-.425-.453a.559.559 0 0 0-.306.053m2.081-.042c-.257.094-.414.446-.299.672.033.065.771.832 1.641 1.705l1.582 1.587-1.609 1.613c-1.054 1.057-1.62 1.66-1.642 1.751a.499.499 0 0 0 .614.614c.191-.046 3.794-3.649 3.84-3.839a.67.67 0 0 0 0-.275c-.041-.169-3.52-3.675-3.758-3.788-.165-.078-.242-.086-.369-.04m-.185 10.038c.256.046.555.15.87.303.403.196.549.303.913.666.451.451.695.842.879 1.407.174.538.564.718.877.405.22-.221.19-.524-.127-1.266-.035-.082.027-.088.923-.088.895 0 .958.006.925.088-.33.816-.353 1.041-.129 1.266.301.301.726.122.855-.359.127-.476.453-1.002.9-1.451.36-.363.505-.469.905-.664 1.032-.502 1.996-.5 3.042.004.404.195.541.296.931.686.376.376.493.532.661.881.303.633.38.942.382 1.549.002.64-.066.938-.352 1.536a3.48 3.48 0 0 1-1.088 1.297c-.454.325-.532.416-.532.623 0 .285.198.494.467.494.266 0 .757-.319 1.216-.789l.321-.329-.014 2.197c-.015 2.135-.018 2.203-.124 2.432-.153.331-.528.713-.86.876-.24.118-.343.138-.706.138-.357 0-.471-.022-.711-.134-.372-.174-.66-.479-.942-.997-1.024-1.877-1.788-3.2-1.94-3.361a2.02 2.02 0 0 0-.432-.325l-.25-.133h-5.05l-.25.133c-.137.073-.332.22-.432.325-.103.108-.617.976-1.175 1.986-1.075 1.942-1.22 2.144-1.707 2.372-.24.112-.354.134-.711.134-.364 0-.466-.02-.708-.139a1.837 1.837 0 0 1-.837-.836l-.13-.275-.015-2.162c-.007-1.19 0-2.163.017-2.163.018 0 .163.133.323.296.391.397.927.754 1.133.754.201 0 .448-.201.492-.4.047-.214-.062-.393-.369-.605a3.671 3.671 0 0 1-1.415-1.853c-.144-.417-.161-.528-.163-1.042-.001-.491.018-.637.134-1 .316-.992.953-1.737 1.863-2.177.728-.352 1.355-.44 2.14-.3m-.909 1.497c-.209.115-.252.264-.254.868L15 20h-.548c-.606 0-.773.049-.881.257-.132.256-.061.518.178.66.109.064.268.083.696.083H15v.552c0 .381.022.596.071.691.172.333.686.333.858 0 .049-.095.071-.31.071-.691V21h.555c.428 0 .587-.019.696-.083.239-.142.31-.404.178-.66-.108-.208-.275-.257-.881-.257H16v-.548c0-.604-.041-.745-.249-.869a.466.466 0 0 0-.495-.013m9.914.1c-.166.166-.17.18-.17.58 0 .4.004.414.17.58.192.192.36.217.581.087.193-.115.249-.264.249-.667s-.056-.552-.249-.667c-.221-.13-.389-.105-.581.087m-1.414 1.4c-.336.186-.325.714.018.87.199.091.808.076.977-.023.328-.194.323-.674-.008-.846-.176-.09-.825-.091-.987-.001m2.515-.013c-.136.066-.271.299-.271.468 0 .087.061.196.17.305.166.166.18.17.58.17.4 0 .414-.004.58-.17.192-.192.217-.36.087-.581a.56.56 0 0 0-.203-.195c-.147-.067-.802-.065-.943.003M25.17 21.17c-.164.164-.17.184-.17.555 0 .424.081.627.286.721.16.073.292.068.457-.017.19-.099.257-.275.257-.679s-.067-.58-.257-.679c-.225-.116-.386-.088-.573.099m-6.5 1c-.123.123-.17.215-.17.33 0 .115.047.207.17.33.166.166.18.17.58.17.4 0 .414-.004.58-.17.123-.123.17-.215.17-.33 0-.115-.047-.207-.17-.33-.166-.166-.18-.17-.58-.17-.4 0-.414.004-.58.17m2.586-.1a.487.487 0 0 0-.007.847c.169.099.778.114.977.023.344-.156.354-.694.017-.869-.176-.09-.825-.091-.987-.001m1.655 3.028c.114.09.789 1.249.789 1.356 0 .028-1.281.046-3.2.046-2.296 0-3.2-.016-3.2-.055 0-.103.653-1.22.78-1.332l.126-.113h2.29c2.2 0 2.295.004 2.415.098" fill="#000" fill-rule="evenodd"/>
</symbol>
<symbol id="icon-Group-104" viewBox="0 0 32 32">
<path fill="none" stroke="#fff" style="stroke: var(--color1, #fff)" stroke-linejoin="miter" stroke-linecap="butt" stroke-miterlimit="4" stroke-width="4" d="M24.087 13.043c0 6.099-4.944 11.043-11.043 11.043s-11.043-4.944-11.043-11.043c0-6.099 4.944-11.043 11.043-11.043s11.043 4.944 11.043 11.043z"></path>
<path fill="#fff" style="fill: var(--color1, #fff)" d="M28.586 31.414c0.781 0.781 2.047 0.781 2.828 0s0.781-2.047 0-2.828l-2.828 2.828zM22.936 20.108l-1.414-1.414-2.828 2.828 1.414 1.414 2.828-2.828zM31.414 28.586l-8.478-8.478-2.828 2.828 8.478 8.478 2.828-2.828z"></path>
</symbol>
<symbol id="icon-tic-tac-toe-1" viewBox="0 0 32 32">
<path d="M0 0h32v32h-32v-32z"></path>
</symbol>
<symbol id="icon-puzzle-1" viewBox="0 0 32 32">
<path d="M0 0h32v32h-32v-32z"></path>
</symbol>
<symbol id="icon-sword-1" viewBox="0 0 32 32">
<path d="M0 0h32v32h-32v-32z"></path>
</symbol>
<symbol id="icon-Ellipse-8" viewBox="0 0 32 32">
<path d="M31.533 16c0 8.1-6.731 14.667-15.033 14.667s-15.033-6.567-15.033-14.667c0-8.1 6.731-14.667 15.033-14.667s15.033 6.566 15.033 14.667z"></path>
</symbol>
<symbol id="icon-game-development-1" viewBox="0 0 32 32">
<path d="M2.053 0.076c-0.988 0.25-1.785 1.068-1.994 2.047-0.085 0.403-0.085 24.685 0 25.088 0.157 0.733 0.749 1.511 1.385 1.82 0.64 0.31 0.511 0.303 5.606 0.303h4.681l0.030 0.147c0.257 1.291 1.013 2.132 2.193 2.439 0.396 0.102 0.925 0.102 1.324-0.002 0.887-0.23 1.502-0.738 1.999-1.651 0.16-0.293 0.346-0.623 0.413-0.732l0.123-0.198 3.907-0.020c2.149-0.012 3.964-0.030 4.034-0.042 0.113-0.019 0.172 0.059 0.563 0.752 0.333 0.589 0.522 0.859 0.794 1.132 0.707 0.707 1.74 1.003 2.665 0.763 1.058-0.272 1.874-1.088 2.142-2.126l0.004-0.020c0.117-0.451 0.117-7.942 0-8.617-0.337-1.946-1.78-3.483-3.647-3.952l-0.034-0.007-0.48-0.122-0.027-7.485c-0.026-7.121-0.032-7.499-0.126-7.753-0.338-0.911-1.098-1.588-1.997-1.78-0.431-0.092-23.19-0.076-23.557 0.016zM25.745 1.214c0.353 0.189 0.585 0.421 0.746 0.75 0.145 0.293 0.15 0.334 0.166 1.303l0.018 0.999h-25.618l0.019-1.026c0.017-0.932 0.030-1.047 0.135-1.247 0.237-0.446 0.631-0.777 1.046-0.876 0.093-0.022 5.364-0.037 11.715-0.033l11.547 0.009 0.225 0.121zM2.406 2.208c-0.16 0.091-0.267 0.26-0.267 0.454 0 0.191 0.103 0.358 0.257 0.448l0.002 0.001c0.207 0.122 0.862 0.122 1.069 0 0.35-0.207 0.345-0.719-0.009-0.902-0.188-0.096-0.88-0.097-1.053-0.001zM5.073 2.208c-0.253 0.14-0.337 0.447-0.197 0.718 0.107 0.207 0.294 0.274 0.758 0.274 0.387 0 0.411-0.007 0.585-0.181 0.267-0.267 0.223-0.646-0.093-0.81-0.188-0.096-0.88-0.097-1.053-0.001zM7.74 2.208c-0.315 0.174-0.357 0.545-0.092 0.811 0.175 0.175 0.196 0.181 0.592 0.181 0.452 0 0.669-0.086 0.769-0.305 0.033-0.067 0.053-0.146 0.053-0.229 0-0.196-0.107-0.366-0.267-0.456l-0.003-0.001c-0.188-0.096-0.88-0.097-1.053-0.001zM22.14 2.208c-0.253 0.14-0.337 0.447-0.197 0.718 0.133 0.258 0.241 0.274 1.825 0.274h1.47l0.181-0.181c0.267-0.267 0.223-0.646-0.093-0.81-0.206-0.107-2.995-0.108-3.186-0.001zM26.654 11.211l-0.014 5.876-0.347 0.066c-0.9 0.171-1.97 0.747-2.556 1.375l-0.129 0.139h-1.743c-1.716 0-1.744-0.002-1.844-0.115-0.438-0.496-1.484-1.108-2.261-1.324-2.321-0.646-4.942 0.769-5.737 3.099-0.277 0.814-0.29 1.023-0.29 4.614v3.326h-4.665c-4.541 0-4.672-0.003-4.951-0.107-0.375-0.143-0.676-0.408-0.862-0.746l-0.004-0.008-0.158-0.286-0.014-10.893-0.014-10.894h25.601l-0.013 5.877zM9.781 7.621c-0.41 0.303-3.853 3.813-3.89 3.966-0.010 0.044-0.015 0.095-0.015 0.147s0.006 0.103 0.016 0.151l-0.001-0.005c0.041 0.165 3.738 3.913 3.996 4.048 0.412 0.218 0.891-0.211 0.726-0.651-0.033-0.090-0.787-0.889-1.749-1.851l-1.69-1.694 1.687-1.694c0.928-0.931 1.713-1.745 1.746-1.809 0.174-0.346-0.095-0.764-0.491-0.764-0.070 0-0.222 0.069-0.336 0.155zM15.22 7.549c-0.098 0.054-0.177 0.131-0.23 0.225l-0.002 0.003c-0.449 0.977-3.255 7.611-3.255 7.694 0 0.259 0.273 0.529 0.533 0.529 0.19-0.008 0.355-0.111 0.45-0.261l0.001-0.002c0.253-0.49 3.282-7.653 3.282-7.761 0-0.178-0.254-0.449-0.453-0.483-0.020-0.002-0.042-0.004-0.065-0.004-0.095 0-0.185 0.022-0.264 0.062l0.003-0.002zM17.44 7.504c-0.274 0.1-0.442 0.476-0.319 0.717 0.035 0.069 0.822 0.887 1.75 1.819l1.687 1.693-1.716 1.721c-1.124 1.127-1.728 1.771-1.751 1.868-0.012 0.043-0.019 0.091-0.019 0.142 0 0.294 0.238 0.532 0.532 0.532 0.051 0 0.099-0.007 0.146-0.020l-0.004 0.001c0.204-0.049 4.047-3.892 4.096-4.095 0.010-0.044 0.015-0.095 0.015-0.147s-0.006-0.103-0.016-0.151l0.001 0.005c-0.044-0.18-3.755-3.92-4.009-4.041-0.176-0.083-0.258-0.092-0.394-0.043zM17.243 18.211c0.273 0.049 0.592 0.16 0.928 0.323 0.43 0.209 0.586 0.323 0.974 0.71 0.481 0.481 0.741 0.898 0.938 1.501 0.186 0.574 0.602 0.766 0.935 0.432 0.235-0.236 0.203-0.559-0.135-1.35-0.037-0.087 0.029-0.094 0.985-0.094 0.955 0 1.022 0.006 0.987 0.094-0.352 0.87-0.377 1.11-0.138 1.35 0.321 0.321 0.774 0.13 0.912-0.383 0.135-0.508 0.483-1.069 0.96-1.548 0.384-0.387 0.539-0.5 0.965-0.708 1.101-0.535 2.129-0.533 3.245 0.004 0.431 0.208 0.577 0.316 0.993 0.732 0.401 0.401 0.526 0.567 0.705 0.94 0.323 0.675 0.405 1.005 0.407 1.652 0.002 0.683-0.070 1.001-0.375 1.638-0.276 0.56-0.669 1.025-1.15 1.376l-0.010 0.007c-0.484 0.347-0.567 0.444-0.567 0.665 0 0.304 0.211 0.527 0.498 0.527 0.284 0 0.807-0.34 1.297-0.842l0.342-0.351-0.015 2.343c-0.016 2.277-0.019 2.35-0.132 2.594-0.163 0.353-0.563 0.761-0.917 0.934-0.256 0.126-0.366 0.147-0.753 0.147-0.381 0-0.502-0.023-0.758-0.143-0.397-0.186-0.704-0.511-1.005-1.063-1.092-2.002-1.907-3.413-2.069-3.585-0.134-0.132-0.285-0.247-0.45-0.341l-0.011-0.006-0.267-0.142h-5.387l-0.267 0.142c-0.146 0.078-0.354 0.235-0.461 0.347-0.11 0.115-0.658 1.041-1.253 2.118-1.147 2.071-1.301 2.287-1.821 2.53-0.256 0.119-0.378 0.143-0.758 0.143-0.388 0-0.497-0.021-0.755-0.148-0.389-0.194-0.698-0.503-0.888-0.88l-0.005-0.011-0.139-0.293-0.016-2.306c-0.007-1.269 0-2.307 0.018-2.307 0.019 0 0.174 0.142 0.345 0.316 0.417 0.423 0.989 0.804 1.209 0.804 0.214 0 0.478-0.214 0.525-0.427 0.050-0.228-0.066-0.419-0.394-0.645-0.696-0.476-1.223-1.154-1.501-1.949l-0.008-0.027c-0.154-0.445-0.172-0.563-0.174-1.111-0.001-0.524 0.019-0.679 0.143-1.067 0.337-1.058 1.017-1.853 1.987-2.322 0.777-0.375 1.445-0.469 2.283-0.32zM16.273 19.808c-0.223 0.123-0.269 0.282-0.271 0.926l-0.002 0.599h-0.585c-0.646 0-0.825 0.052-0.94 0.274-0.141 0.273-0.065 0.553 0.19 0.704 0.116 0.068 0.286 0.089 0.742 0.089h0.592v0.589c0 0.406 0.023 0.636 0.076 0.737 0.183 0.355 0.732 0.355 0.915 0 0.052-0.101 0.076-0.331 0.076-0.737v-0.589h0.592c0.457 0 0.626-0.020 0.742-0.089 0.255-0.151 0.331-0.431 0.19-0.704-0.115-0.222-0.293-0.274-0.94-0.274h-0.585v-0.585c0-0.644-0.044-0.795-0.266-0.927-0.077-0.052-0.173-0.083-0.275-0.083-0.093 0-0.181 0.026-0.255 0.070l0.002-0.001zM26.848 19.915c-0.177 0.177-0.181 0.192-0.181 0.619s0.004 0.442 0.181 0.619c0.205 0.205 0.384 0.231 0.62 0.093 0.206-0.123 0.266-0.282 0.266-0.711s-0.060-0.589-0.266-0.711c-0.236-0.139-0.415-0.112-0.62 0.093zM25.34 21.408c-0.358 0.198-0.347 0.762 0.019 0.928 0.212 0.097 0.862 0.081 1.042-0.025 0.35-0.207 0.345-0.719-0.009-0.902-0.188-0.096-0.88-0.097-1.053-0.001zM28.022 21.394c-0.145 0.070-0.289 0.319-0.289 0.499 0 0.093 0.065 0.209 0.181 0.325 0.177 0.177 0.192 0.181 0.619 0.181s0.442-0.004 0.619-0.181c0.205-0.205 0.231-0.384 0.093-0.62-0.054-0.087-0.127-0.157-0.214-0.206l-0.003-0.002c-0.157-0.071-0.855-0.069-1.006 0.003zM26.848 22.581c-0.175 0.175-0.181 0.196-0.181 0.592 0 0.452 0.086 0.669 0.305 0.769 0.171 0.078 0.311 0.073 0.487-0.018 0.203-0.106 0.274-0.293 0.274-0.724s-0.071-0.619-0.274-0.724c-0.24-0.124-0.412-0.094-0.611 0.106zM19.915 23.648c-0.131 0.131-0.181 0.229-0.181 0.352s0.050 0.221 0.181 0.352c0.177 0.177 0.192 0.181 0.619 0.181s0.442-0.004 0.619-0.181c0.131-0.131 0.181-0.229 0.181-0.352s-0.050-0.221-0.181-0.352c-0.177-0.177-0.192-0.181-0.619-0.181s-0.442 0.004-0.619 0.181zM22.673 23.541c-0.16 0.091-0.267 0.26-0.267 0.454 0 0.191 0.103 0.358 0.257 0.448l0.002 0.001c0.18 0.106 0.83 0.122 1.042 0.025 0.367-0.166 0.378-0.74 0.018-0.927-0.188-0.096-0.88-0.097-1.053-0.001zM24.438 26.771c0.122 0.096 0.842 1.332 0.842 1.446 0 0.030-1.366 0.049-3.413 0.049-2.449 0-3.413-0.017-3.413-0.059 0-0.11 0.697-1.301 0.832-1.421l0.134-0.121h2.443c2.347 0 2.448 0.004 2.576 0.105z"></path>
</symbol>
<symbol id="icon-Ellipse-7" viewBox="0 0 32 32">
<path d="M30.533 16c0 8.1-6.731 14.667-15.033 14.667s-15.033-6.567-15.033-14.667c0-8.1 6.731-14.667 15.033-14.667s15.033 6.566 15.033 14.667z"></path>
</symbol>
<symbol id="icon-Group-4" viewBox="0 0 76 32">
<path fill="none" stroke="#000" style="stroke: var(--color2, #000)" stroke-linejoin="round" stroke-linecap="round" stroke-miterlimit="4" stroke-width="1.6" d="M8.8 9.943l-8 8 8 8"></path>
<path fill="none" stroke="#000" style="stroke: var(--color2, #000)" stroke-linejoin="round" stroke-linecap="round" stroke-miterlimit="4" stroke-width="1.6" d="M24.8 9.943l8 8-8 8"></path>
<path fill="#000" style="fill: var(--color2, #000)" d="M19.628 4.034l-6.869 25.637c-0.093 0.348-0.451 0.555-0.8 0.462s-0.555-0.451-0.462-0.8l6.869-25.637c0.093-0.348 0.451-0.555 0.8-0.462s0.555 0.451 0.462 0.8z"></path>
<path fill="#d9d9d9" style="fill: var(--color3, #d9d9d9)" d="M18.366 3.696c0.093-0.348 0.451-0.555 0.8-0.462s0.555 0.451 0.462 0.8l-0.837 3.123-1.262-0.338 0.837-3.123z"></path>
<path fill="none" stroke="#000" style="stroke: var(--color2, #000)" stroke-linejoin="miter" stroke-linecap="round" stroke-miterlimit="4" stroke-width="0.8" d="M20.556 5.618l2.523 0.676"></path>
<path fill="none" stroke="#000" style="stroke: var(--color2, #000)" stroke-linejoin="miter" stroke-linecap="round" stroke-miterlimit="4" stroke-width="0.8" d="M14.248 3.928l2.523 0.676"></path>
<path fill="none" stroke="#000" style="stroke: var(--color2, #000)" stroke-linejoin="miter" stroke-linecap="round" stroke-miterlimit="4" stroke-width="0.8" d="M15.717 0.969l1.31 2.247"></path>
<path fill="none" stroke="#000" style="stroke: var(--color2, #000)" stroke-linejoin="miter" stroke-linecap="round" stroke-miterlimit="4" stroke-width="0.8" d="M14.069 7.117l2.258-1.291"></path>
<path fill="none" stroke="#000" style="stroke: var(--color2, #000)" stroke-linejoin="miter" stroke-linecap="round" stroke-miterlimit="4" stroke-width="0.8" d="M20.22 6.869l1.31 2.247"></path>
<path fill="none" stroke="#000" style="stroke: var(--color2, #000)" stroke-linejoin="miter" stroke-linecap="round" stroke-miterlimit="4" stroke-width="0.8" d="M20.92 4.26l2.258-1.291"></path>
<path fill="#000" style="fill: var(--color2, #000)" d="M44.013 12.058c-0.666 0-1.267-0.147-1.805-0.442-0.531-0.294-0.95-0.701-1.258-1.219-0.301-0.525-0.451-1.11-0.451-1.757s0.15-1.229 0.451-1.747c0.307-0.525 0.73-0.934 1.267-1.229s1.139-0.442 1.805-0.442c0.499 0 0.96 0.083 1.382 0.25s0.781 0.41 1.075 0.73l-0.451 0.451c-0.525-0.531-1.187-0.797-1.987-0.797-0.531 0-1.014 0.122-1.45 0.365s-0.778 0.576-1.027 0.998c-0.243 0.422-0.365 0.896-0.365 1.421s0.122 0.998 0.365 1.421c0.25 0.422 0.592 0.755 1.027 0.998s0.918 0.365 1.45 0.365c0.806 0 1.469-0.269 1.987-0.806l0.451 0.451c-0.294 0.32-0.656 0.566-1.085 0.739-0.422 0.166-0.883 0.25-1.382 0.25zM49.689 12.048c-0.486 0-0.925-0.109-1.315-0.326-0.39-0.224-0.698-0.531-0.922-0.922s-0.336-0.832-0.336-1.325c0-0.493 0.112-0.934 0.336-1.325s0.531-0.694 0.922-0.912c0.39-0.218 0.829-0.326 1.315-0.326s0.925 0.109 1.315 0.326c0.39 0.218 0.694 0.522 0.912 0.912 0.224 0.39 0.336 0.832 0.336 1.325s-0.112 0.934-0.336 1.325c-0.218 0.39-0.522 0.698-0.912 0.922-0.39 0.218-0.829 0.326-1.315 0.326zM49.689 11.443c0.358 0 0.678-0.080 0.96-0.24 0.288-0.166 0.512-0.4 0.672-0.701s0.24-0.643 0.24-1.027c0-0.384-0.080-0.726-0.24-1.027s-0.384-0.531-0.672-0.691c-0.282-0.166-0.602-0.25-0.96-0.25s-0.682 0.083-0.97 0.25c-0.282 0.16-0.506 0.39-0.672 0.691-0.16 0.301-0.24 0.643-0.24 1.027s0.080 0.726 0.24 1.027c0.166 0.301 0.39 0.534 0.672 0.701 0.288 0.16 0.611 0.24 0.97 0.24zM58.252 4.877v7.123h-0.653v-0.998c-0.205 0.339-0.477 0.598-0.816 0.778-0.333 0.179-0.71 0.269-1.133 0.269-0.474 0-0.902-0.109-1.286-0.326s-0.685-0.522-0.902-0.912c-0.218-0.39-0.326-0.835-0.326-1.334s0.109-0.944 0.326-1.334c0.218-0.39 0.518-0.691 0.902-0.902 0.384-0.218 0.813-0.326 1.286-0.326 0.41 0 0.778 0.086 1.104 0.259 0.333 0.166 0.605 0.413 0.816 0.739v-3.034h0.682zM55.708 11.443c0.352 0 0.669-0.080 0.95-0.24 0.288-0.166 0.512-0.4 0.672-0.701 0.166-0.301 0.25-0.643 0.25-1.027s-0.083-0.726-0.25-1.027c-0.16-0.301-0.384-0.531-0.672-0.691-0.282-0.166-0.598-0.25-0.95-0.25-0.358 0-0.682 0.083-0.97 0.25-0.282 0.16-0.506 0.39-0.672 0.691-0.16 0.301-0.24 0.643-0.24 1.027s0.080 0.726 0.24 1.027c0.166 0.301 0.39 0.534 0.672 0.701 0.288 0.16 0.611 0.24 0.97 0.24zM60.15 6.95h0.682v5.050h-0.682v-5.050zM60.496 5.846c-0.141 0-0.259-0.048-0.355-0.144s-0.144-0.211-0.144-0.346c0-0.128 0.048-0.24 0.144-0.336s0.214-0.144 0.355-0.144c0.141 0 0.259 0.048 0.355 0.144 0.096 0.090 0.144 0.198 0.144 0.326 0 0.141-0.048 0.259-0.144 0.355s-0.214 0.144-0.355 0.144zM65.301 6.912c0.634 0 1.136 0.186 1.507 0.557 0.378 0.365 0.566 0.899 0.566 1.603v2.928h-0.682v-2.861c0-0.525-0.131-0.925-0.394-1.2s-0.637-0.413-1.123-0.413c-0.544 0-0.976 0.163-1.296 0.49-0.314 0.32-0.47 0.765-0.47 1.334v2.65h-0.682v-5.050h0.653v0.931c0.186-0.307 0.442-0.544 0.768-0.71 0.333-0.173 0.717-0.259 1.152-0.259zM73.919 6.95v4.435c0 0.858-0.211 1.491-0.634 1.901-0.416 0.416-1.046 0.624-1.891 0.624-0.467 0-0.912-0.070-1.334-0.211-0.416-0.134-0.755-0.323-1.018-0.566l0.346-0.518c0.243 0.218 0.538 0.387 0.883 0.509 0.352 0.122 0.72 0.182 1.104 0.182 0.64 0 1.11-0.15 1.411-0.451 0.301-0.294 0.451-0.755 0.451-1.382v-0.643c-0.211 0.32-0.49 0.563-0.835 0.73-0.339 0.166-0.717 0.25-1.133 0.25-0.474 0-0.906-0.102-1.296-0.307-0.384-0.211-0.688-0.502-0.912-0.874-0.218-0.378-0.326-0.803-0.326-1.277s0.109-0.896 0.326-1.267c0.224-0.371 0.528-0.659 0.912-0.864s0.816-0.307 1.296-0.307c0.429 0 0.816 0.086 1.162 0.259s0.624 0.422 0.835 0.749v-0.97h0.653zM71.337 11.203c0.365 0 0.694-0.077 0.989-0.23 0.294-0.16 0.522-0.381 0.682-0.662 0.166-0.282 0.25-0.602 0.25-0.96s-0.083-0.675-0.25-0.95c-0.16-0.282-0.387-0.499-0.682-0.653-0.288-0.16-0.618-0.24-0.989-0.24-0.365 0-0.694 0.077-0.989 0.23-0.288 0.154-0.515 0.371-0.682 0.653-0.16 0.282-0.24 0.602-0.24 0.96s0.080 0.678 0.24 0.96c0.166 0.282 0.394 0.502 0.682 0.662 0.294 0.154 0.624 0.23 0.989 0.23z"></path>
<path fill="#000" style="fill: var(--color2, #000)" d="M62.366 18.762c-0.134 0.197-0.284 0.433-0.45 0.708s-0.342 0.583-0.53 0.923c-0.159 0.284-0.317 0.588-0.473 0.909-0.153 0.319-0.3 0.636-0.441 0.952-0.141 0.312-0.27 0.614-0.389 0.905-0.119 0.288-0.222 0.542-0.309 0.764-0.088 0.219-0.156 0.395-0.206 0.53-0.050 0.131-0.075 0.198-0.075 0.202-0.031 0.078-0.087 0.117-0.169 0.117-0.041 0-0.077-0.012-0.108-0.037-0.031-0.028-0.052-0.063-0.061-0.103 0-0.003-0.016-0.069-0.047-0.197-0.028-0.131-0.067-0.305-0.117-0.52-0.050-0.219-0.108-0.469-0.173-0.75-0.062-0.284-0.13-0.58-0.202-0.886-0.069-0.309-0.139-0.622-0.211-0.938s-0.139-0.616-0.202-0.9c-0.209 0.591-0.42 1.114-0.633 1.57-0.209 0.453-0.425 0.848-0.647 1.186-0.222 0.334-0.452 0.616-0.689 0.844-0.234 0.228-0.481 0.412-0.741 0.553-0.256 0.138-0.527 0.236-0.811 0.295-0.281 0.059-0.58 0.089-0.895 0.089-0.163 0-0.336-0.019-0.52-0.056-0.184-0.034-0.367-0.089-0.548-0.164s-0.355-0.169-0.52-0.281c-0.166-0.112-0.312-0.245-0.441-0.398-0.128-0.156-0.23-0.331-0.305-0.525-0.075-0.197-0.112-0.416-0.112-0.656 0-0.253 0.053-0.484 0.159-0.694 0.106-0.212 0.25-0.394 0.431-0.544 0.181-0.153 0.391-0.272 0.628-0.356 0.241-0.084 0.494-0.127 0.759-0.127 0.194 0 0.367 0.017 0.52 0.052 0.156 0.031 0.294 0.072 0.413 0.122s0.22 0.105 0.305 0.164 0.155 0.114 0.211 0.164c0.056 0.050 0.097 0.094 0.122 0.131 0.025 0.034 0.039 0.052 0.042 0.052 0.019 0.034 0.028 0.067 0.028 0.098 0 0.044-0.017 0.084-0.052 0.122-0.031 0.037-0.073 0.056-0.127 0.056-0.063 0-0.113-0.027-0.15-0.080-0.003-0.003-0.028-0.031-0.075-0.084-0.047-0.056-0.123-0.117-0.23-0.183s-0.244-0.125-0.412-0.178c-0.166-0.053-0.369-0.080-0.609-0.080-0.219 0-0.427 0.034-0.623 0.103-0.194 0.066-0.364 0.159-0.511 0.281-0.144 0.122-0.259 0.267-0.347 0.436-0.084 0.166-0.127 0.348-0.127 0.548 0 0.197 0.033 0.377 0.098 0.539s0.153 0.308 0.263 0.436c0.109 0.128 0.236 0.239 0.38 0.333s0.294 0.172 0.45 0.234c0.156 0.059 0.312 0.105 0.469 0.136 0.159 0.028 0.309 0.042 0.45 0.042 0.238 0 0.469-0.017 0.694-0.052 0.228-0.038 0.452-0.106 0.67-0.206 0.222-0.1 0.439-0.238 0.652-0.412s0.423-0.403 0.633-0.684c0.209-0.281 0.416-0.62 0.619-1.017 0.206-0.397 0.412-0.866 0.619-1.406 0.063-0.162 0.123-0.338 0.183-0.525s0.12-0.377 0.183-0.567c-0.053-0.275-0.092-0.509-0.117-0.703-0.022-0.194-0.033-0.355-0.033-0.483 0-0.137 0.011-0.247 0.033-0.328s0.050-0.142 0.084-0.183c0.034-0.044 0.072-0.070 0.113-0.080 0.041-0.013 0.080-0.019 0.117-0.019 0.031 0 0.066 0.006 0.103 0.019 0.041 0.012 0.077 0.041 0.108 0.084 0.034 0.041 0.063 0.102 0.084 0.183s0.033 0.191 0.033 0.328c0 0.15-0.014 0.323-0.042 0.52s-0.070 0.414-0.127 0.652c0.041 0.191 0.088 0.403 0.141 0.638s0.108 0.478 0.164 0.731c0.056 0.25 0.114 0.506 0.173 0.769s0.117 0.519 0.173 0.769 0.109 0.489 0.159 0.717c0.053 0.228 0.102 0.434 0.145 0.619 0.084-0.213 0.188-0.469 0.309-0.769 0.122-0.303 0.258-0.623 0.408-0.961 0.15-0.341 0.308-0.686 0.473-1.036 0.169-0.353 0.341-0.686 0.516-0.998 0.247-0.444 0.473-0.823 0.68-1.139 0.206-0.319 0.384-0.581 0.534-0.788s0.267-0.358 0.352-0.455c0.088-0.1 0.134-0.155 0.141-0.164 0.034-0.034 0.077-0.052 0.127-0.052 0.053 0 0.095 0.019 0.127 0.056 0.034 0.034 0.052 0.075 0.052 0.122 0 0.022-0.005 0.044-0.014 0.066 0 0.003-0.019 0.050-0.056 0.141-0.034 0.087-0.080 0.209-0.136 0.366-0.053 0.153-0.113 0.334-0.178 0.544-0.066 0.206-0.13 0.43-0.192 0.67-0.063 0.237-0.119 0.488-0.169 0.75-0.047 0.259-0.081 0.519-0.103 0.778-0.009 0.119-0.017 0.244-0.023 0.375-0.006 0.128-0.009 0.258-0.009 0.389 0 0.206 0.009 0.414 0.028 0.623s0.050 0.411 0.094 0.605c0.044 0.194 0.103 0.377 0.178 0.548 0.075 0.169 0.167 0.317 0.277 0.445s0.239 0.231 0.389 0.309c0.153 0.078 0.33 0.12 0.53 0.127 0.050 0.003 0.089 0.025 0.117 0.066 0.031 0.038 0.047 0.078 0.047 0.122s-0.017 0.083-0.052 0.117c-0.034 0.034-0.075 0.052-0.122 0.052-0.050 0-0.1-0.005-0.15-0.014-0.225-0.031-0.423-0.095-0.595-0.192-0.172-0.1-0.32-0.222-0.445-0.366-0.125-0.147-0.23-0.312-0.314-0.497-0.081-0.187-0.147-0.387-0.197-0.6s-0.086-0.433-0.108-0.661c-0.019-0.231-0.028-0.464-0.028-0.698 0-0.278 0.014-0.556 0.042-0.834s0.066-0.548 0.112-0.811c0.047-0.266 0.102-0.522 0.164-0.769s0.127-0.477 0.192-0.689zM67.761 23.492c-0.013 0.025-0.039 0.078-0.080 0.159-0.038 0.078-0.088 0.169-0.15 0.272-0.059 0.103-0.13 0.211-0.211 0.323s-0.172 0.216-0.272 0.309c-0.1 0.094-0.208 0.172-0.323 0.234-0.116 0.059-0.237 0.089-0.366 0.089-0.181 0-0.334-0.058-0.459-0.173-0.122-0.116-0.211-0.261-0.267-0.436-0.106 0.178-0.233 0.32-0.38 0.427-0.147 0.103-0.294 0.155-0.441 0.155-0.116 0-0.22-0.020-0.314-0.061-0.094-0.044-0.173-0.103-0.239-0.178-0.066-0.078-0.117-0.169-0.155-0.272-0.034-0.103-0.052-0.216-0.052-0.338 0-0.244 0.041-0.458 0.122-0.642 0.084-0.188 0.191-0.344 0.319-0.469s0.269-0.219 0.422-0.281c0.156-0.063 0.306-0.094 0.45-0.094 0.097 0 0.186 0.014 0.267 0.042 0.081 0.025 0.15 0.053 0.206 0.084 0.059 0.031 0.105 0.061 0.136 0.089 0.031 0.025 0.048 0.039 0.052 0.042 0.034 0.041 0.052 0.083 0.052 0.127 0 0.047-0.017 0.089-0.052 0.127-0.034 0.034-0.075 0.052-0.122 0.052-0.050 0-0.092-0.017-0.127-0.052-0.006-0.006-0.020-0.017-0.042-0.033-0.022-0.019-0.052-0.037-0.089-0.056s-0.083-0.034-0.136-0.047c-0.050-0.016-0.108-0.023-0.173-0.023-0.097 0-0.2 0.022-0.309 0.066s-0.209 0.112-0.3 0.206c-0.091 0.091-0.167 0.206-0.23 0.347-0.059 0.137-0.089 0.302-0.089 0.492 0 0.059 0.006 0.12 0.019 0.183 0.012 0.059 0.034 0.114 0.066 0.164s0.073 0.091 0.127 0.122c0.053 0.031 0.119 0.047 0.197 0.047 0.056 0 0.12-0.019 0.192-0.056 0.075-0.037 0.145-0.095 0.211-0.173 0.069-0.078 0.13-0.177 0.183-0.295 0.056-0.119 0.095-0.259 0.117-0.422 0.006-0.044 0.027-0.080 0.061-0.108 0.034-0.031 0.075-0.047 0.122-0.047 0.044 0 0.081 0.017 0.112 0.052 0.034 0.034 0.053 0.073 0.056 0.117 0.003 0.059 0.009 0.144 0.019 0.253 0.009 0.106 0.030 0.213 0.061 0.319 0.034 0.106 0.084 0.198 0.15 0.277s0.156 0.117 0.272 0.117c0.075 0 0.148-0.020 0.22-0.061 0.075-0.041 0.147-0.094 0.216-0.159 0.072-0.069 0.139-0.145 0.202-0.23 0.066-0.088 0.125-0.175 0.178-0.263s0.1-0.172 0.141-0.253c0.041-0.081 0.075-0.152 0.103-0.211 0.016-0.034 0.038-0.061 0.066-0.080 0.031-0.019 0.064-0.028 0.098-0.028 0.053 0 0.095 0.020 0.127 0.061 0.034 0.037 0.052 0.078 0.052 0.122 0 0.022-0.005 0.044-0.014 0.066zM69.134 25.259c0.587-0.766 0.995-1.402 1.223-1.908 0.016-0.034 0.036-0.059 0.061-0.075 0.028-0.019 0.059-0.028 0.094-0.028 0.053 0 0.097 0.019 0.131 0.056 0.034 0.034 0.052 0.075 0.052 0.122 0 0.022-0.005 0.044-0.014 0.066-0.138 0.313-0.333 0.661-0.586 1.045s-0.573 0.819-0.961 1.303c0 0.197 0.002 0.394 0.005 0.591s0.005 0.412 0.005 0.647c0 0.234-0.006 0.466-0.019 0.694-0.009 0.231-0.028 0.45-0.056 0.656-0.028 0.209-0.067 0.402-0.117 0.577-0.047 0.178-0.109 0.331-0.188 0.459-0.075 0.131-0.167 0.233-0.277 0.305-0.106 0.075-0.233 0.113-0.38 0.113-0.209 0-0.37-0.080-0.483-0.239s-0.169-0.386-0.169-0.68c0-0.156 0.014-0.327 0.042-0.511 0.031-0.181 0.075-0.369 0.131-0.563s0.123-0.391 0.202-0.591c0.081-0.197 0.17-0.389 0.267-0.577s0.202-0.367 0.314-0.539c0.116-0.172 0.238-0.328 0.366-0.469 0.003-0.219 0.005-0.436 0.005-0.652 0.003-0.216 0.008-0.414 0.014-0.595-0.094 0.119-0.206 0.212-0.338 0.281-0.128 0.069-0.256 0.103-0.384 0.103-0.109 0-0.209-0.020-0.3-0.061-0.088-0.044-0.163-0.103-0.225-0.178-0.062-0.078-0.111-0.169-0.145-0.272s-0.052-0.216-0.052-0.338c0-0.244 0.041-0.458 0.122-0.642 0.084-0.188 0.191-0.344 0.319-0.469s0.269-0.219 0.422-0.281c0.156-0.063 0.306-0.094 0.45-0.094 0.097 0 0.186 0.012 0.267 0.038s0.15 0.053 0.206 0.084c0.059 0.031 0.105 0.061 0.136 0.089s0.048 0.044 0.052 0.047c0.034 0.037 0.052 0.080 0.052 0.127s-0.017 0.089-0.052 0.127c-0.034 0.034-0.075 0.052-0.122 0.052-0.044 0-0.086-0.017-0.127-0.052-0.013-0.009-0.030-0.022-0.052-0.038-0.019-0.019-0.045-0.038-0.080-0.056-0.031-0.019-0.070-0.034-0.117-0.047-0.044-0.012-0.097-0.019-0.159-0.019-0.094 0-0.197 0.022-0.309 0.066-0.113 0.041-0.217 0.106-0.314 0.197s-0.178 0.208-0.244 0.352c-0.066 0.141-0.098 0.311-0.098 0.511 0 0.15 0.033 0.272 0.098 0.366 0.066 0.091 0.167 0.136 0.305 0.136 0.066 0 0.134-0.019 0.206-0.056 0.075-0.037 0.147-0.095 0.216-0.173s0.128-0.177 0.178-0.295c0.053-0.119 0.091-0.259 0.112-0.422 0.006-0.044 0.027-0.080 0.061-0.108 0.034-0.031 0.075-0.047 0.122-0.047 0.053 0 0.094 0.019 0.122 0.056 0.031 0.038 0.047 0.080 0.047 0.127 0 0.003-0.002 0.052-0.005 0.145-0.003 0.091-0.006 0.213-0.009 0.366s-0.008 0.331-0.014 0.534c-0.003 0.2-0.006 0.413-0.009 0.638zM68.778 26.286c-0.147 0.203-0.28 0.423-0.398 0.661-0.119 0.241-0.22 0.483-0.305 0.727s-0.15 0.48-0.197 0.708c-0.044 0.231-0.066 0.437-0.066 0.619 0 0.116 0.009 0.208 0.028 0.277 0.022 0.069 0.047 0.122 0.075 0.159 0.031 0.038 0.064 0.062 0.098 0.075 0.038 0.012 0.072 0.019 0.103 0.019 0.097 0 0.181-0.039 0.253-0.117s0.133-0.183 0.183-0.314c0.050-0.128 0.091-0.277 0.122-0.445s0.055-0.344 0.070-0.525c0.016-0.178 0.027-0.356 0.033-0.534s0.009-0.342 0.009-0.492c0-0.134 0-0.269 0-0.403s-0.003-0.272-0.009-0.412zM71.127 21.12c0 0.119-0.042 0.22-0.127 0.305-0.081 0.081-0.181 0.122-0.3 0.122s-0.22-0.041-0.305-0.122c-0.081-0.084-0.122-0.186-0.122-0.305 0-0.059 0.011-0.114 0.033-0.164 0.022-0.053 0.052-0.098 0.089-0.136 0.041-0.041 0.086-0.072 0.136-0.094 0.053-0.022 0.109-0.033 0.169-0.033s0.114 0.011 0.164 0.033c0.053 0.022 0.098 0.053 0.136 0.094 0.041 0.038 0.072 0.083 0.094 0.136 0.022 0.050 0.033 0.105 0.033 0.164zM70.367 23.867c0-0.45 0.028-0.898 0.084-1.345 0.006-0.044 0.025-0.081 0.056-0.112 0.034-0.034 0.078-0.052 0.131-0.052 0.047 0 0.086 0.019 0.117 0.056 0.031 0.034 0.047 0.075 0.047 0.122 0 0.019-0.005 0.075-0.014 0.169-0.006 0.094-0.016 0.206-0.028 0.337-0.009 0.128-0.019 0.266-0.028 0.413-0.006 0.144-0.009 0.277-0.009 0.398 0 0.166 0.016 0.3 0.047 0.403 0.034 0.1 0.077 0.178 0.127 0.234 0.053 0.056 0.108 0.094 0.164 0.112 0.059 0.019 0.116 0.028 0.169 0.028 0.088 0 0.178-0.031 0.272-0.094s0.189-0.15 0.286-0.262c0.1-0.113 0.2-0.247 0.3-0.403 0.1-0.159 0.198-0.336 0.295-0.53 0.016-0.031 0.038-0.055 0.066-0.070 0.028-0.019 0.059-0.028 0.094-0.028 0.050 0 0.091 0.019 0.122 0.056 0.034 0.038 0.052 0.078 0.052 0.122 0 0.031-0.006 0.058-0.019 0.080-0.038 0.072-0.084 0.159-0.141 0.262s-0.12 0.209-0.192 0.319c-0.072 0.109-0.152 0.219-0.239 0.328-0.084 0.106-0.175 0.203-0.272 0.291-0.097 0.084-0.198 0.153-0.305 0.206s-0.214 0.080-0.323 0.080c-0.141 0-0.264-0.030-0.37-0.089s-0.197-0.139-0.272-0.239c-0.072-0.1-0.127-0.217-0.164-0.352-0.034-0.138-0.052-0.284-0.052-0.441zM70.864 21.12c0-0.044-0.017-0.081-0.052-0.112-0.031-0.034-0.069-0.052-0.112-0.052s-0.081 0.017-0.112 0.052c-0.031 0.031-0.047 0.069-0.047 0.112s0.016 0.081 0.047 0.112c0.031 0.031 0.069 0.047 0.112 0.047s0.081-0.016 0.112-0.047c0.034-0.031 0.052-0.069 0.052-0.112zM75.444 23.502c-0.019 0.034-0.052 0.097-0.098 0.187-0.044 0.091-0.105 0.194-0.183 0.309-0.075 0.113-0.166 0.23-0.272 0.352s-0.228 0.234-0.366 0.338c-0.137 0.1-0.292 0.183-0.464 0.248-0.169 0.066-0.353 0.098-0.553 0.098-0.178 0-0.336-0.033-0.473-0.098-0.138-0.062-0.255-0.152-0.352-0.267-0.097-0.119-0.17-0.258-0.22-0.417s-0.075-0.336-0.075-0.53c0-0.187 0.027-0.362 0.080-0.525 0.053-0.166 0.125-0.309 0.216-0.431 0.094-0.122 0.202-0.217 0.323-0.286 0.122-0.072 0.252-0.108 0.389-0.108 0.103 0 0.197 0.019 0.281 0.056 0.084 0.034 0.155 0.081 0.211 0.141 0.059 0.059 0.105 0.125 0.136 0.197 0.034 0.072 0.052 0.144 0.052 0.216 0 0.069-0.009 0.133-0.028 0.192-0.016 0.059-0.038 0.112-0.066 0.159-0.025 0.044-0.055 0.080-0.089 0.108-0.034 0.025-0.069 0.038-0.103 0.038-0.053 0-0.097-0.017-0.131-0.052-0.031-0.034-0.047-0.077-0.047-0.127 0-0.025 0.005-0.047 0.014-0.066 0.013-0.019 0.025-0.038 0.038-0.056 0.016-0.022 0.028-0.047 0.038-0.075 0.012-0.031 0.019-0.070 0.019-0.117 0-0.066-0.031-0.125-0.094-0.178-0.059-0.053-0.136-0.080-0.23-0.080-0.087 0-0.172 0.027-0.253 0.080-0.078 0.053-0.147 0.125-0.206 0.216-0.059 0.088-0.108 0.192-0.145 0.314-0.034 0.119-0.052 0.245-0.052 0.38 0 0.128 0.016 0.25 0.047 0.366s0.078 0.219 0.141 0.309c0.062 0.088 0.141 0.158 0.234 0.211 0.097 0.053 0.211 0.080 0.342 0.080 0.169 0 0.325-0.030 0.469-0.089 0.144-0.062 0.275-0.141 0.394-0.234s0.223-0.195 0.314-0.305c0.091-0.113 0.167-0.217 0.23-0.314 0.066-0.1 0.116-0.186 0.15-0.258 0.038-0.075 0.059-0.122 0.066-0.141 0.013-0.031 0.033-0.055 0.061-0.070 0.031-0.019 0.064-0.028 0.098-0.028 0.053 0 0.095 0.019 0.127 0.056 0.034 0.038 0.052 0.080 0.052 0.127 0 0.019-0.006 0.044-0.019 0.075z"></path>
</symbol>
</defs>
</svg>
